<svg data-v-0dd9719b="" version="1.0" xmlns="http://www.w3.org/2000/svg" xmlns:xlink="http://www.w3.org/1999/xlink" width="100%" height="100%" viewBox="0 0 340.000000 250.000000" preserveAspectRatio="xMidYMid meet" color-interpolation-filters="sRGB" style="margin: auto;"> <rect data-v-0dd9719b="" x="0" y="0" width="100%" height="100%" fill="#fff" fill-opacity="1" class="background"></rect> <rect data-v-0dd9719b="" x="0" y="0" width="100%" height="100%" fill="url(#watermark)" fill-opacity="1" class="watermarklayer"></rect> <g data-v-0dd9719b="" fill="#333" class="icon-text-wrapper icon-svg-group iconsvg" transform="translate(49.11500549316406,90.56869125366211)"><g class="iconsvg-imagesvg" transform="translate(0,0)"><g><rect fill="#333" fill-opacity="0" stroke-width="2" x="0" y="0" width="60" height="68.86261907494548" class="image-rect"></rect> <svg x="0" y="0" width="60" height="68.86261907494548" filtersec="colorsb7380646838" class="image-svg-svg primary" style="overflow: visible;"><svg xmlns="http://www.w3.org/2000/svg" viewBox="0 0 87.1300048828125 100"><title>资源 211</title><path fill="none" d="M68.14 39.78l2.11-1.22 2.8-1.62v-3.96l-2.2-1.27-5.79 3.36-21.33 12.36-22.77-13.19-4.52-2.62-2.36 1.36v3.96l2.8 1.62 24.18 14.03V82.6l2.5 1.44 2.5-1.44V52.58l22.08-12.8z"></path><path fill="#184473" d="M16.88 38.56l-2.8-1.62v30.08L41.06 82.6V52.59L16.88 38.56z"></path><path fill="#184473" d="M9.12 34.07l-2.28-1.32-.01.01L0 28.79V76.3L41.06 100V88.33L9.12 69.89V34.07z"></path><path fill="#03b6f0" d="M75.8 28.84l2.47-1.44 6.45-3.73L43.73 0 2.72 23.69l8.75 5.07 32.09-18.53L75.8 28.84z"></path><path fill="#03b6f0" d="M20.96 34.24l22.77 13.19 21.33-12.36 5.79-3.36-27.29-15.75-27.12 15.66 4.52 2.62z"></path><path fill="#0582d2" d="M70.25 38.56l-2.11 1.22-22.08 12.8V82.6l26.99-15.58V36.94l-2.8 1.62z"></path><path fill="#0582d2" d="M80.29 32.76l-.01-.01-2.27 1.32v35.82L46.06 88.33V100l41.07-23.71v-47.5l-6.84 3.97z"></path></svg></svg> <!----></g></g> <g transform="translate(67,21.37130832672119)"><g data-gra="path-name" fill-rule="" class="tp-name iconsvg-namesvg"><g transform="scale(1)"><g><path d="M22.64-25.64Q23.69-25.64 24.31-25.01 24.92-24.38 24.92-23.33L24.92-23.33 24.92-2.13Q24.92-1.08 24.29-0.43 23.66 0.22 22.64 0.22L22.64 0.22Q21.6 0.22 20.98-0.43 20.37-1.08 20.37-2.13L20.37-2.13 20.37-11.05 7.33-11.05 7.33-2.13Q7.33-1.08 6.7-0.43 6.07 0.22 5.02 0.22L5.02 0.22Q4.01 0.22 3.38-0.43 2.74-1.08 2.74-2.13L2.74-2.13 2.74-23.33Q2.74-24.38 3.36-25.01 3.97-25.64 5.02-25.64L5.02-25.64Q6.07-25.64 6.7-25.01 7.33-24.38 7.33-23.33L7.33-23.33 7.33-14.81 20.37-14.81 20.37-23.33Q20.37-24.38 20.98-25.01 21.6-25.64 22.64-25.64L22.64-25.64ZM40.92 0.33Q35.68 0.33 32.97-2.38 30.26-5.09 30.26-10.29L30.26-10.29 30.26-23.33Q30.26-24.38 30.88-25.01 31.49-25.64 32.54-25.64L32.54-25.64Q33.59-25.64 34.2-25.01 34.82-24.38 34.82-23.33L34.82-23.33 34.82-10.04Q34.82-6.75 36.37-5.07 37.92-3.39 40.92-3.39L40.92-3.39Q43.88-3.39 45.43-5.09 46.99-6.79 46.99-10.04L46.99-10.04 46.99-23.33Q46.99-24.38 47.6-25.01 48.21-25.64 49.26-25.64L49.26-25.64Q50.31-25.64 50.92-25.01 51.54-24.38 51.54-23.33L51.54-23.33 51.54-10.29Q51.54-5.13 48.83-2.4 46.12 0.33 40.92 0.33L40.92 0.33ZM59.19 0.22Q58.15 0.22 57.51-0.43 56.88-1.08 56.88-2.13L56.88-2.13 56.88-23.33Q56.88-24.38 57.51-25.01 58.15-25.64 59.19-25.64L59.19-25.64Q60.28-25.64 60.91-25.01 61.54-24.38 61.54-23.33L61.54-23.33 61.54-2.13Q61.54-1.08 60.91-0.43 60.28 0.22 59.19 0.22L59.19 0.22ZM86.82-3.32Q87.4-2.64 87.4-1.95L87.4-1.95Q87.4-1.08 86.73-0.43 86.06 0.22 85.2 0.22L85.2 0.22Q84.29 0.22 83.61-0.58L83.61-0.58 76.28-9.68 68.91-0.58Q68.26 0.18 67.36 0.18L67.36 0.18Q66.49 0.18 65.82-0.45 65.15-1.08 65.15-1.95L65.15-1.95Q65.15-2.67 65.69-3.32L65.69-3.32 73.57-12.93 66.02-22.14Q65.48-22.72 65.48-23.51L65.48-23.51Q65.48-24.38 66.13-25.01 66.78-25.64 67.64-25.64L67.64-25.64Q68.55-25.64 69.23-24.85L69.23-24.85 76.28-16.14 83.32-24.85Q83.97-25.64 84.87-25.64L84.87-25.64Q85.74-25.64 86.41-25.01 87.07-24.38 87.07-23.51L87.07-23.51Q87.07-22.72 86.53-22.14L86.53-22.14 78.98-12.93 86.82-3.32ZM93.32 0.22Q92.28 0.22 91.64-0.43 91.01-1.08 91.01-2.13L91.01-2.13 91.01-23.33Q91.01-24.38 91.64-25.01 92.28-25.64 93.32-25.64L93.32-25.64Q94.41-25.64 95.04-25.01 95.67-24.38 95.67-23.33L95.67-23.33 95.67-2.13Q95.67-1.08 95.04-0.43 94.41 0.22 93.32 0.22L93.32 0.22ZM112.5 0.33Q108.78 0.33 106.05-1.26 103.33-2.85 101.85-5.81 100.37-8.78 100.37-12.75L100.37-12.75Q100.37-16.72 101.83-19.66 103.29-22.61 106.04-24.2 108.78-25.79 112.5-25.79L112.5-25.79Q116.22-25.79 118.95-24.2 121.67-22.61 123.14-19.66 124.6-16.72 124.6-12.75L124.6-12.75Q124.6-8.78 123.12-5.81 121.64-2.85 118.91-1.26 116.18 0.33 112.5 0.33L112.5 0.33ZM112.5-3.39Q116-3.39 117.97-5.81 119.94-8.23 119.94-12.75L119.94-12.75Q119.94-17.26 117.97-19.66 116-22.07 112.5-22.07L112.5-22.07Q108.96-22.07 106.99-19.66 105.02-17.26 105.02-12.75L105.02-12.75Q105.02-8.23 106.99-5.81 108.96-3.39 112.5-3.39L112.5-3.39ZM148.58-25.64Q149.59-25.64 150.19-25.01 150.78-24.38 150.78-23.33L150.78-23.33 150.78-2.13Q150.78-1.08 150.17-0.43 149.55 0.22 148.58 0.22L148.58 0.22Q147.42 0.22 146.81-0.61L146.81-0.61 133.63-17.77 133.63-2.13Q133.63-1.08 133.05-0.43 132.47 0.22 131.46 0.22L131.46 0.22Q130.45 0.22 129.87-0.43 129.29-1.08 129.29-2.13L129.29-2.13 129.29-23.33Q129.29-24.38 129.91-25.01 130.52-25.64 131.53-25.64L131.53-25.64Q132.65-25.64 133.27-24.81L133.27-24.81 146.41-7.73 146.41-23.33Q146.41-24.38 147.01-25.01 147.6-25.64 148.58-25.64L148.58-25.64ZM175.67-13.76Q176.5-13.76 177-13.27 177.51-12.78 177.51-11.99L177.51-11.99 177.51-4.23Q177.51-2.56 177.07-1.88 176.64-1.19 175.3-0.76L175.3-0.76Q173.86-0.25 171.95 0.04 170.03 0.33 168.26 0.33L168.26 0.33Q164.33 0.33 161.44-1.23 158.55-2.78 157.01-5.72 155.48-8.67 155.48-12.75L155.48-12.75Q155.48-16.76 157.01-19.7 158.55-22.64 161.36-24.22 164.18-25.79 168.01-25.79L168.01-25.79Q173.1-25.79 176.35-23.04L176.35-23.04Q176.79-22.64 176.98-22.25 177.18-21.85 177.18-21.31L177.18-21.31Q177.18-20.51 176.75-19.97 176.32-19.43 175.7-19.43L175.7-19.43Q175.3-19.43 174.98-19.56 174.65-19.68 174.22-19.97L174.22-19.97Q172.63-21.09 171.26-21.54 169.89-21.99 168.15-21.99L168.15-21.99Q164.22-21.99 162.21-19.66 160.21-17.34 160.21-12.75L160.21-12.75Q160.21-3.36 168.44-3.36L168.44-3.36Q170.9-3.36 173.35-4.04L173.35-4.04 173.35-10.44 169.27-10.44Q168.41-10.44 167.92-10.87 167.43-11.3 167.43-12.1L167.43-12.1Q167.43-12.89 167.92-13.33 168.41-13.76 169.27-13.76L169.27-13.76 175.67-13.76Z" transform="translate(-2.740000009536743, 25.790000915527344)"></path></g> <!----> <!----> <!----> <!----> <!----> <!----> <!----></g></g> <!----></g></g><defs v-gra="od"></defs></svg>